# xmcd CD database file
#
# Track frame offsets:
#	150
#	22861
#	42916
#	74723
#	94403
#	120033
#	133469
#	167248
#	191056
#	211504
#	223795
#	243417
#	252098
#	279660
#	301007
#
# Disc length: 4348 seconds
#
# Revision: 0
# Processed by: cddbd v1.5.2PL0 Copyright (c) Steve Scherf et al.
# Submitted via: CDex 1.70beta1
#
DISCID=d810fa0f
DTITLE=Bob Wallis - Vintage Bob Wallis CD 02
DYEAR=1900
DGENRE=Jazz
TTITLE0=Savoy Blues 
TTITLE1=Dippermouth Blues 
TTITLE2=Wabash Blues 
TTITLE3=Panama
TTITLE4=Big House Blues 
TTITLE5=Chinatown My Chinatown 
TTITLE6=Snag It 
TTITLE7=I've Found A New Baby 
TTITLE8=Maryland My Maryland 
TTITLE9=Original Tuxedo Rag 
TTITLE10=Royal Garden Blues 
TTITLE11=Darkness On The Delta 
TTITLE12=All The Girls Go Crazy 
TTITLE13=St. Louis Blues
TTITLE14=Savoy Blues 
EXTD=
EXTT0=
EXTT1=
EXTT2=
EXTT3=
EXTT4=
EXTT5=
EXTT6=
EXTT7=
EXTT8=
EXTT9=
EXTT10=
EXTT11=
EXTT12=
EXTT13=
EXTT14=
PLAYORDER=
